<svg xmlns="http://www.w3.org/2000/svg" viewBox="0 0 1024 1024"><path d="M288 576H342Q362 576 379 586Q396 596 406 613Q416 630 416 651Q416 671 406 688Q396 705 379 715Q362 725 342 725H320V736Q320 749 311 759Q302 768 288 768Q275 768 266 759Q256 749 256 736V608Q256 594 266 585Q275 576 288 576ZM342 661Q346 661 349 658Q352 655 352 651Q352 646 349 643Q346 640 342 640H320V661ZM640 608Q640 594 650 585Q659 576 672 576H736Q749 576 759 585Q768 594 768 608Q768 621 759 631Q749 640 736 640H704V661H736Q749 661 759 671Q768 680 768 693Q768 706 759 716Q749 725 736 725H704V736Q704 749 695 758Q686 768 672 768Q659 768 650 759Q640 749 640 736ZM480 576H512Q538 576 560 589Q582 602 595 624Q608 646 608 672Q608 698 595 720Q582 742 560 755Q538 768 512 768H480Q467 768 457 759Q448 749 448 736V608Q448 594 457 585Q467 576 480 576ZM512 704Q526 704 535 695Q544 685 544 672Q544 658 535 649Q526 640 512 640ZM128 128Q128 93 145 64Q163 34 192 17Q222 0 256 0H550Q569 0 586 7Q604 14 618 28L868 278Q882 292 889 310Q896 327 896 346V453Q925 463 942 488Q960 513 960 543V800Q960 831 942 856Q925 880 896 890V896Q896 931 879 960Q862 989 832 1007Q803 1024 768 1024H256Q222 1024 192 1007Q163 989 145 960Q128 931 128 896V890Q100 880 82 856Q64 831 64 800V543Q64 513 82 488Q100 463 128 453ZM832 384H608Q582 384 560 371Q538 358 525 336Q512 314 512 288V64H256Q239 64 224 72Q210 81 201 96Q192 110 192 128V447H832ZM192 896Q192 913 201 928Q210 943 224 951Q239 960 256 960H768Q786 960 800 951Q815 943 824 928Q832 913 832 896ZM576 77V288Q576 301 586 311Q595 320 608 320H819ZM160 511Q147 511 138 521Q128 530 128 543V800Q128 813 138 822Q147 832 160 832H864Q877 832 887 822Q896 813 896 800V543Q896 530 887 521Q877 511 864 511Z"/></svg>
